<svg width="3373" height="472" viewBox="0 0 3373 472" fill="none" xmlns="http://www.w3.org/2000/svg">
<path fill-rule="evenodd" clip-rule="evenodd" d="M1283.58 65.8973L1401.44 265.909C1417.46 219.408 1422.57 168.391 1422.6 119.599C1375.22 106.111 1327.54 88.8747 1283.58 65.8973ZM1226.89 66.596C1182.88 90.5617 1136.58 108.315 1087.47 120.371C1085.85 171.529 1090.84 224.252 1108.48 272.436L1226.89 66.596Z" fill="#F9F9F9" stroke="#F9F9F9" stroke-width="0.205534"/>
<path fill-rule="evenodd" clip-rule="evenodd" d="M1255.3 56.4811L1106.24 315.604C1076.92 260.11 1063.79 190.303 1068.55 104.668C1130.8 90.9699 1193.05 67.3336 1255.3 26.8648C1306.35 59.7949 1369.57 85.1235 1442.04 104.668C1443.77 194.347 1429.34 259.801 1404.37 309.452L1255.3 56.4811ZM1165.32 309.825C1169.83 309.825 1173.48 313.476 1173.48 317.983C1173.48 322.486 1169.83 326.138 1165.32 326.138C1160.82 326.138 1157.17 322.486 1157.17 317.983C1157.17 313.476 1160.82 309.825 1165.32 309.825ZM1352.66 329.279C1357.16 329.279 1360.81 332.93 1360.81 337.434C1360.81 341.94 1357.16 345.591 1352.66 345.591C1348.15 345.591 1344.5 341.94 1344.5 337.434C1344.5 332.93 1348.15 329.279 1352.66 329.279ZM1315.67 258.128C1320.18 258.128 1323.83 261.779 1323.83 266.287C1323.83 270.789 1320.18 274.441 1315.67 274.441C1311.17 274.441 1307.51 270.789 1307.51 266.287C1307.51 261.779 1311.17 258.128 1315.67 258.128ZM1267.35 184.334C1271.85 184.334 1275.51 187.986 1275.51 192.492C1275.51 196.998 1271.85 200.651 1267.35 200.651C1262.84 200.651 1259.19 196.998 1259.19 192.492C1259.19 187.986 1262.84 184.334 1267.35 184.334ZM1206.78 239.558C1211.28 239.558 1214.94 243.209 1214.94 247.712C1214.94 252.216 1211.28 255.867 1206.78 255.867C1202.27 255.867 1198.62 252.216 1198.62 247.712C1198.62 243.209 1202.27 239.558 1206.78 239.558ZM1260.57 397.291V444.276C1309.42 418.919 1354.39 387.761 1387.36 338.615L1255.3 111.693L1121.92 341.69C1152.82 387.137 1196.42 421.339 1251.53 445.364V397.291H1243.94H1234.97H1234.91V362.658H1211.3H1202.26V353.622V322.5H1180.61C1178.66 329.1 1172.56 333.918 1165.32 333.918C1156.52 333.918 1149.38 326.782 1149.38 317.983C1149.38 309.18 1156.52 302.048 1165.32 302.048C1172.56 302.048 1178.66 306.863 1180.61 313.465H1202.26V262.998C1195.66 261.05 1190.84 254.945 1190.84 247.712C1190.84 238.91 1197.98 231.777 1206.78 231.777C1215.58 231.777 1222.72 238.91 1222.72 247.712C1222.72 254.945 1217.9 261.05 1211.3 262.998V353.622H1234.91H1243.94V362.658V388.256H1268.35V370.688V361.651V338.064H1243.76H1234.72V329.029V275.194V266.158H1243.76H1262.83V207.777C1256.23 205.829 1251.41 199.725 1251.41 192.492C1251.41 183.692 1258.55 176.557 1267.35 176.557C1276.15 176.557 1283.29 183.692 1283.29 192.492C1283.29 199.725 1278.47 205.829 1271.87 207.777V266.158V275.194H1243.76V329.029H1268.35V314.345V305.31H1277.39H1311.15V281.571C1304.55 279.623 1299.73 273.518 1299.73 266.287C1299.73 257.483 1306.87 250.347 1315.67 250.347C1324.47 250.347 1331.61 257.483 1331.61 266.287C1331.61 273.518 1326.79 279.623 1320.19 281.571V305.31V314.282V314.345H1277.39V329.029V338.064V361.651H1300.23V341.954V332.916H1309.27H1337.37C1339.32 326.316 1345.42 321.498 1352.66 321.498C1361.46 321.498 1368.6 328.633 1368.6 337.434C1368.6 346.236 1361.46 353.372 1352.66 353.372C1345.42 353.372 1339.32 348.554 1337.37 341.954H1309.27V361.651V370.688H1300.23H1277.39V388.256V397.291H1268.35H1260.57ZM1063.71 82.6413C1128.3 68.4299 1187.51 44.0381 1243.01 7.95948L1255.25 4.78718e-06L1267.52 7.91645C1321.79 42.914 1385.85 66.1553 1447.92 82.8946L1464.27 87.3014L1464.59 104.234C1465.98 176.298 1457.76 252.37 1425.44 317.758C1400.71 367.791 1364.91 405.594 1318.73 436.382C1301.67 447.752 1283.79 457.808 1265.52 467.09L1256.16 471.842L1246.5 467.749C1200.58 448.3 1159.06 420.984 1125.88 383.484C1057.33 306.009 1040.46 203.689 1046.03 103.413L1046.98 86.3223L1063.71 82.6413Z" fill="#D2990B"/>
<path d="M1600.87 352.31C1574.26 349.949 1550.32 339.405 1533.02 322.425C1520.07 309.712 1510.61 292.399 1505.97 272.913C1502.18 257.007 1502.11 255.108 1502.09 168.923L1502.08 87.7503H1530.08H1558.09L1558.38 166.948C1558.68 245.657 1558.69 246.194 1560.46 254.032C1565.89 278.162 1579.83 294.775 1599.66 300.759C1603.14 301.811 1607.01 302.19 1614.27 302.19C1621.54 302.19 1625.41 301.811 1628.89 300.759C1647.24 295.221 1661.48 279.22 1666.72 258.261C1669.38 247.579 1669.55 242.021 1669.57 164.973L1669.58 87.7503H1698.03H1726.47V166.272C1726.47 215.467 1726.16 247.848 1725.64 252.974C1722.68 282.127 1712.77 305.2 1696.02 321.95C1678.34 339.629 1654.92 349.871 1626.52 352.347C1615.89 353.274 1611.67 353.268 1600.87 352.31L1600.87 352.31ZM1873.09 352.371C1856.34 350.468 1839.18 345.621 1825.57 338.943C1791.73 322.334 1767 292.203 1757.85 256.415C1754.18 242.069 1753.73 237.742 1753.77 217.31C1753.8 199.397 1753.96 197.214 1755.92 188C1759.28 172.179 1764.69 158.205 1772.08 146.219C1799.39 101.901 1848.39 77.7908 1902.48 82.0506C1932.48 84.413 1956.48 93.5121 1979.6 111.283C1985.25 115.626 1999.06 128.734 1999.06 129.753C1999.06 130.585 1964.45 169.91 1963.72 169.91C1963.46 169.91 1959.48 166.246 1954.88 161.768C1942.76 149.973 1933.05 143.88 1919.65 139.671C1909.65 136.527 1902.39 135.672 1889.82 136.155C1867.68 137.005 1851.25 143.978 1835.62 159.155C1824.21 170.24 1818.38 180.051 1814.45 194.802C1812.56 201.886 1812.33 204.153 1812.27 216.915C1812.2 231.932 1812.72 235.82 1816.28 246.935C1820.18 259.071 1826.58 269.159 1836.24 278.382C1851.36 292.83 1866.13 299.19 1886.47 300.006C1902.65 300.656 1916.29 297.838 1929.75 291.065C1938.61 286.611 1944.25 282.451 1953.11 273.841L1961.28 265.901L1978.6 283.673C1988.12 293.448 1996.28 302.079 1996.74 302.853C1997.42 304.025 1996.73 305.133 1992.58 309.461C1972.42 330.522 1946.14 345.276 1918.82 350.88C1909.78 352.734 1883.76 353.583 1873.09 352.371V352.371ZM2025.13 218.89V87.7503H2115.21H2205.28V112.635V137.52H2144.6C2098.46 137.52 2083.69 137.747 2082.97 138.468C2082.27 139.17 2082.02 146.632 2082.02 167.145C2082.02 187.659 2082.27 195.121 2082.97 195.822C2083.69 196.542 2097.75 196.77 2141.44 196.77H2198.96V221.655V246.54H2141.44C2097.75 246.54 2083.69 246.768 2082.97 247.488C2082.25 248.206 2082.02 260.778 2082.02 299.233V350.03H2053.58H2025.13V218.89Z" fill="#D2990B" stroke="#D2990B" stroke-width="0.24543"/>
<path d="M640.456 349.975C603.899 347.843 575.523 335.389 550.72 310.589C526.829 286.702 515.525 261.617 512.727 226.278C509.83 189.69 520.035 155.489 541.85 128.669C547.427 121.813 559.116 110.663 566.605 105.058C583.555 92.3692 602.593 84.2019 624.654 80.1548C634.549 78.3396 664.715 78.0722 674.036 79.7171C697.808 83.9116 717.568 92.2453 735.382 105.589C743.629 111.767 757.789 125.179 757.789 126.813C757.789 127.552 729.947 159.938 724.232 165.846C723.369 166.738 722.036 165.746 716.197 159.865C701.431 144.995 685.877 136.808 666.925 133.93C629.228 128.206 593.611 146.051 578.811 178.077C573.01 190.632 570.432 207.778 571.974 223.542C574.099 245.253 581.099 260.967 594.638 274.416C613.866 293.517 638.623 300.498 667.802 295.045C685.104 291.813 700.658 283.28 713.921 269.748L720.418 263.12L734.626 277.543C751.402 294.572 756.208 299.753 756.208 300.808C756.208 302.132 738.76 318.691 732.484 323.322C704.716 343.817 676.245 352.063 640.456 349.975V349.975ZM1.2271 348.263C1.01843 347.715 0.938958 288.431 1.05053 216.521L1.2534 85.7758L28.814 85.568C48.4968 85.4195 56.6836 85.6165 57.4557 86.2571C58.3512 87.0003 58.5367 96.4795 58.5367 141.483C58.5367 190.295 58.6636 195.86 59.7865 196.291C61.4195 196.918 162.32 196.918 163.952 196.291C165.076 195.86 165.202 190.253 165.202 141.006V86.2009L166.98 85.7678C167.958 85.5296 180.847 85.434 195.622 85.5553L222.486 85.7758V217.311V348.846H194.041H165.597L165.202 297.101L164.807 245.356H111.87H58.9318L58.5367 297.101L58.1417 348.846L29.8741 349.053C7.68312 349.216 1.52496 349.046 1.2271 348.263ZM240.772 348.634C240.269 347.822 353.125 86.7404 354.303 85.9916C354.81 85.669 367.157 85.3995 381.74 85.3929C401.791 85.3834 408.553 85.6216 409.474 86.3683C411.037 87.6347 523.288 347.548 522.689 348.515C521.951 349.71 463.431 349.455 462.524 348.253C462.114 347.71 456.678 335.357 450.443 320.801C444.208 306.245 438.579 293.714 437.932 292.953C436.834 291.661 433.159 291.571 381.668 291.571C338.559 291.571 326.402 291.786 325.763 292.558C325.313 293.101 319.729 305.632 313.353 320.404C306.977 335.176 301.391 347.708 300.94 348.252C300.309 349.012 293.284 349.241 270.633 349.241C254.415 349.241 240.978 348.968 240.772 348.634V348.634ZM414.699 239.826C414.818 238.957 407.82 221.715 399.149 201.511C386.928 173.035 383.071 164.776 381.999 164.776C380.939 164.776 378.239 170.251 370.501 188.081C364.939 200.899 357.664 217.662 354.335 225.334C350.846 233.375 348.489 239.819 348.77 240.55C349.207 241.691 352.539 241.798 381.87 241.612C413.806 241.41 414.488 241.373 414.699 239.826ZM782.651 348.263C782.442 347.715 782.363 288.431 782.474 216.521L782.677 85.7758H810.726H838.775L838.978 138.811C839.149 183.361 839.36 191.995 840.298 192.773C841.212 193.532 850.37 183.972 890.819 140.035C917.991 110.52 940.804 86.1484 941.514 85.876C943.69 85.0413 1009.69 85.2994 1010.21 86.1447C1010.47 86.5648 987.562 112.595 959.298 143.989C931.035 175.383 907.91 201.494 907.91 202.013C907.91 202.531 931.168 235.598 959.595 275.494C988.021 315.39 1011.11 348.304 1010.91 348.637C1010.41 349.438 946.514 349.396 945.25 348.594C944.71 348.251 927.11 324.905 906.139 296.714C885.168 268.522 867.606 245.329 867.113 245.173C866.62 245.017 861.312 250.327 855.318 256.973C849.324 263.618 843.328 270.231 841.993 271.667L839.565 274.277L839.17 311.562L838.775 348.846L810.903 349.053C789.028 349.216 782.949 349.046 782.651 348.263V348.263Z" fill="#F9F9F9" stroke="#F9F9F9" stroke-width="0.24543"/>
<path d="M2345 40V393.5" stroke="white" stroke-width="40" stroke-linecap="round"/>
<path d="M2572.3 109H2595.1L2682.1 322H2653.3L2628.1 259.6H2538.7L2513.8 322H2485L2572.3 109ZM2622.1 238.6L2583.7 140.2L2544.1 238.6H2622.1Z" fill="white"/>
<path d="M2691.73 244C2691.73 229.2 2694.73 215.7 2700.73 203.5C2706.93 191.1 2715.33 181.2 2725.93 173.8C2736.73 166.4 2749.03 162.7 2762.83 162.7C2775.43 162.7 2786.73 166 2796.73 172.6C2806.73 179.2 2814.53 187.2 2820.13 196.6V103H2846.53V292C2846.53 295.2 2847.13 297.6 2848.33 299.2C2849.73 300.6 2851.93 301.4 2854.93 301.6V322C2849.93 322.8 2846.03 323.2 2843.23 323.2C2838.03 323.2 2833.43 321.4 2829.43 317.8C2825.63 314.2 2823.73 310.2 2823.73 305.8V292.6C2817.53 302.6 2809.23 310.5 2798.83 316.3C2788.43 322.1 2777.63 325 2766.43 325C2755.63 325 2745.63 322.9 2736.43 318.7C2727.43 314.3 2719.53 308.3 2712.73 300.7C2706.13 293.1 2700.93 284.5 2697.13 274.9C2693.53 265.1 2691.73 254.8 2691.73 244ZM2820.13 267.1V222.1C2817.73 215.3 2813.83 209.2 2808.43 203.8C2803.03 198.2 2796.93 193.8 2790.13 190.6C2783.53 187.2 2776.93 185.5 2770.33 185.5C2762.53 185.5 2755.43 187.2 2749.03 190.6C2742.83 193.8 2737.43 198.2 2732.83 203.8C2728.43 209.2 2725.03 215.4 2722.63 222.4C2720.23 229.4 2719.03 236.7 2719.03 244.3C2719.03 252.1 2720.33 259.5 2722.93 266.5C2725.73 273.5 2729.53 279.7 2734.33 285.1C2739.33 290.5 2745.03 294.7 2751.43 297.7C2758.03 300.7 2765.13 302.2 2772.73 302.2C2777.53 302.2 2782.43 301.3 2787.43 299.5C2792.63 297.7 2797.53 295.2 2802.13 292C2806.73 288.8 2810.63 285.1 2813.83 280.9C2817.03 276.5 2819.13 271.9 2820.13 267.1Z" fill="white"/>
<path d="M3126.7 322H3100.3V234.4C3100.3 218 3097.6 205.9 3092.2 198.1C3087 190.3 3079.2 186.4 3068.8 186.4C3058.2 186.4 3048.6 190.3 3040 198.1C3031.4 205.7 3025.3 215.6 3021.7 227.8V322H2995.3V234.4C2995.3 217.8 2992.7 205.7 2987.5 198.1C2982.3 190.3 2974.5 186.4 2964.1 186.4C2953.7 186.4 2944.1 190.2 2935.3 197.8C2926.7 205.2 2920.6 215.1 2917 227.5V322H2890.6V165.4H2914.6V199C2921 187.4 2929.3 178.5 2939.5 172.3C2949.7 165.9 2961.2 162.7 2974 162.7C2987 162.7 2997.4 166.3 3005.2 173.5C3013 180.5 3017.8 189.6 3019.6 200.8C3026.6 188.4 3035.1 179 3045.1 172.6C3055.1 166 3066.5 162.7 3079.3 162.7C3088.3 162.7 3095.8 164.4 3101.8 167.8C3108 171 3112.9 175.6 3116.5 181.6C3120.1 187.4 3122.7 194.3 3124.3 202.3C3125.9 210.3 3126.7 219 3126.7 228.4V322Z" fill="white"/>
<path d="M3167.75 322V165.4H3194.15V322H3167.75ZM3167.75 136V103H3194.15V136H3167.75Z" fill="white"/>
<path d="M3372.79 322H3346.39V234.4C3346.39 217.8 3343.79 205.7 3338.59 198.1C3333.59 190.3 3325.89 186.4 3315.49 186.4C3308.29 186.4 3301.09 188.2 3293.89 191.8C3286.89 195.4 3280.59 200.3 3274.99 206.5C3269.59 212.5 3265.69 219.5 3263.29 227.5V322H3236.89V165.4H3260.89V199C3265.09 191.6 3270.49 185.2 3277.09 179.8C3283.69 174.4 3291.19 170.2 3299.59 167.2C3307.99 164.2 3316.79 162.7 3325.99 162.7C3334.99 162.7 3342.49 164.4 3348.49 167.8C3354.69 171 3359.49 175.6 3362.89 181.6C3366.49 187.4 3368.99 194.3 3370.39 202.3C3371.99 210.3 3372.79 219 3372.79 228.4V322Z" fill="white"/>
</svg>
