<svg width="334" height="376" viewBox="0 0 334 376" fill="none" xmlns="http://www.w3.org/2000/svg">
  <style>
    #dark {
      fill: #1C1C1C;
      stroke: #1C1C1C;
    }
    @media (prefers-color-scheme: dark) {
      #dark {
        fill: #F9F9F9;
        stroke: #F9F9F9;
      }
    }
  </style>
<g clip-path="url(#clip0_42_68)">
<path fill-rule="evenodd" clip-rule="evenodd" d="M189.995 52.8034L283.683 211.816C296.418 174.847 300.481 134.287 300.504 95.4973C262.838 84.7739 224.937 71.0708 189.995 52.8034ZM144.934 53.3588C109.95 72.412 73.1481 86.5259 34.1071 96.1111C32.8206 136.782 36.7848 178.698 50.8076 217.006L144.934 53.3588Z" fill="#F9F9F9" stroke="#F9F9F9" id="dark" stroke-width="0.525968"/>
<path fill-rule="evenodd" clip-rule="evenodd" d="M167.515 45.3176L49.0293 251.325C25.7252 207.206 15.2863 151.708 19.0722 83.627C68.5543 72.7369 118.036 53.9456 167.515 21.7721C208.101 47.9522 258.352 68.0889 315.96 83.627C317.329 154.924 305.859 206.96 286.013 246.434L167.515 45.3176ZM95.9941 246.73C99.577 246.73 102.48 249.633 102.48 253.216C102.48 256.796 99.577 259.7 95.9941 259.7C92.4138 259.7 89.5104 256.796 89.5104 253.216C89.5104 249.633 92.4138 246.73 95.9941 246.73ZM244.907 262.197C248.487 262.197 251.39 265.099 251.39 268.68C251.39 272.262 248.487 275.165 244.907 275.165C241.324 275.165 238.421 272.262 238.421 268.68C238.421 265.099 241.324 262.197 244.907 262.197ZM215.505 205.631C219.087 205.631 221.991 208.534 221.991 212.117C221.991 215.697 219.087 218.6 215.505 218.6C211.925 218.6 209.022 215.697 209.022 212.117C209.022 208.534 211.925 205.631 215.505 205.631ZM177.096 146.963C180.676 146.963 183.58 149.866 183.58 153.449C183.58 157.031 180.676 159.935 177.096 159.935C173.513 159.935 170.611 157.031 170.611 153.449C170.611 149.866 173.513 146.963 177.096 146.963ZM128.949 190.867C132.529 190.867 135.432 193.77 135.432 197.35C135.432 200.93 132.529 203.833 128.949 203.833C125.366 203.833 122.463 200.93 122.463 197.35C122.463 193.77 125.366 190.867 128.949 190.867ZM171.708 316.268V353.622C210.534 333.463 246.282 308.692 272.495 269.619L167.515 89.2123L61.4926 272.064C86.0522 308.195 120.715 335.387 164.524 354.487V316.268H158.49H151.356H151.306V288.734H132.54H125.357V281.55V256.808H108.146C106.597 262.054 101.743 265.885 95.9941 265.885C88.9955 265.885 83.3251 260.212 83.3251 253.216C83.3251 246.218 88.9955 240.548 95.9941 240.548C101.743 240.548 106.597 244.376 108.146 249.625H125.357V209.502C120.108 207.953 116.279 203.1 116.279 197.35C116.279 190.352 121.951 184.681 128.949 184.681C135.947 184.681 141.618 190.352 141.618 197.35C141.618 203.1 137.789 207.953 132.54 209.502V281.55H151.306H158.49V288.734V309.084H177.893V295.118V287.934V269.181H158.341H151.158V261.998V219.199V212.015H158.341H173.502V165.601C168.256 164.052 164.427 159.199 164.427 153.449C164.427 146.453 170.098 140.78 177.096 140.78C184.092 140.78 189.765 146.453 189.765 153.449C189.765 159.199 185.934 164.052 180.686 165.601V212.015V219.199V219.5H173.502V219.199H158.341V261.998H177.893V250.324V243.141H185.077H211.913V224.268C206.665 222.72 202.836 217.866 202.836 212.117C202.836 205.118 208.507 199.445 215.505 199.445C222.504 199.445 228.174 205.118 228.174 212.117C228.174 217.866 224.346 222.72 219.097 224.268V243.141V250.274V250.324H185.077V261.998V269.181V287.934H203.233V272.274V265.088H210.416H232.755C234.301 259.841 239.156 256.011 244.907 256.011C251.902 256.011 257.576 261.684 257.576 268.68C257.576 275.678 251.902 281.351 244.907 281.351C239.156 281.351 234.303 277.521 232.755 272.274H210.416V287.934V295.118H203.233H185.077V309.084V316.268H177.893H171.708ZM15.219 66.1154C66.5651 54.8171 113.627 35.4252 157.745 6.74207L167.479 0.414124L177.234 6.70786C220.368 34.5316 271.29 53.0089 320.629 66.3169L333.628 69.8204L333.885 83.282C334.984 140.574 328.456 201.053 302.759 253.038C283.101 292.815 254.65 322.869 217.936 347.346C204.378 356.385 190.161 364.38 175.638 371.759L168.204 375.537L160.524 372.283C124.023 356.821 91.0163 335.104 64.6421 305.291C10.1529 243.697 -3.26092 162.35 1.17036 82.6293L1.92671 69.042L15.219 66.1154Z" fill="#D2990B"/>
</g>
<defs>
<clipPath id="clip0_42_68">
<rect width="333.615" height="375.123" fill="white" transform="translate(0.384766 0.414124)"/>
</clipPath>
</defs>
</svg>
