<?xml version="1.0" encoding="UTF-8" standalone="no"?>
<svg
   version="1.1"
   id="svg82"
   width="398.38486"
   height="447.95157"
   viewBox="0 0 398.38486 447.95157"
   xmlns="http://www.w3.org/2000/svg"
   xmlns:svg="http://www.w3.org/2000/svg"
   xmlns:rdf="http://www.w3.org/1999/02/22-rdf-syntax-ns#"
   xmlns:cc="http://creativecommons.org/ns#"
   xmlns:dc="http://purl.org/dc/elements/1.1/">

  <style>
    /* Define the dark parts with their default colors */
    #layer17 #path26 {
      fill: #1c1c1c;
    }
    #layer16 #path2422 {
      fill: #d2990b;
    }

    /* Apply transparent color to dark parts for dark mode */
    @media (prefers-color-scheme: dark) {
      #layer17 #path26 {
        fill: transparent;
      }
    }
  </style>

  <metadata
     id="metadata88">
    <rdf:RDF>
      <cc:Work
         rdf:about="">
        <dc:format>image/svg+xml</dc:format>
        <dc:type
           rdf:resource="http://purl.org/dc/dcmitype/StillImage" />
        <dc:title />
      </cc:Work>
    </rdf:RDF>
  </metadata>
  <defs
     id="defs86">
    <clipPath
       clipPathUnits="userSpaceOnUse"
       id="clipPath18">
      <path
         d="M 0,923 H 800 V 0 H 0 Z"
         id="path16" />
    </clipPath>
  </defs>
  <g
     style="display:inline"
     id="layer1"
     transform="translate(6.4940491,-522.54463)">
    <g
       id="g209"
       transform="matrix(0.47106188,0,0,0.47106188,-6.4940471,522.54463)">
      <g
         id="layer2">
        <path
           id="path862"
           style="fill:#f9f9f9;fill-opacity:1;fill-rule:evenodd;stroke:none"
           d="m -289.554,-39.542 c 97.622,21.481 187.099,58.35 270.979,112.884 L -0.068,85.373 18.478,73.407 c 82.008,-52.9 178.824,-88.03 272.63,-113.332 l 24.714,-6.661 0.49,-25.594 c 2.089,-108.927 -10.323,-223.913 -59.179,-322.749 -37.375,-75.626 -91.468,-132.766 -161.27,-179.304 -25.778,-17.186 -52.808,-32.385 -80.42,-46.415 l -14.133,-7.184 -14.602,6.187 c -69.398,29.398 -132.152,70.687 -182.296,127.369 -103.598,117.107 -129.101,271.767 -120.676,423.337 l 1.438,25.833 z"
           transform="matrix(1.3333333,0,0,-1.3333333,423.6765,113.83066)" />
      </g>
      <g
         id="g10"
         transform="matrix(1.3333333,0,0,-1.3333333,-111.40162,1203.7017)"
         style="display:inline">
        <g
           id="g12">
          <g
             id="g14"
             clip-path="url(#clipPath18)">
            <g
               id="g20"
               transform="translate(401.3086,817.4033)" />
            <g
               id="g24"
               transform="translate(444.0488,803.1709)" />
            <g
               id="g28"
               transform="translate(295.9561,44.2627)" />
            <g
               id="g32"
               transform="translate(687.332,127.4043)" />
          </g>
        </g>
      </g>
      <g
         id="layer1-2"
         style="display:inline" />
    </g>
  </g>
  <g
     style="display:inline"
     id="layer17">
    <path
       d="m 0,0 178.125,-302.324 c 24.212,70.288 31.937,147.402 31.98,221.152 C 138.492,-60.784 66.433,-34.731 0,0 m -85.673,-1.056 c -66.514,-36.225 -136.483,-63.059 -210.71,-81.283 -2.446,-77.326 5.091,-157.019 31.752,-229.851 z"
       style="display:inline;fill-rule:evenodd;stroke:none"
       id="path26"
       transform="matrix(0.62808249,0,0,-0.62808249,226.42222,62.560406)" />
  </g>
  <g
     style="display:inline"
     id="layer16">
    <path
       id="path2422"
       style="display:inline;fill:#d2990b;fill-opacity:1;fill-rule:evenodd;stroke:none"
       d="m 0,0 -225.272,-391.672 c -44.307,83.881 -64.154,189.396 -56.956,318.836 C -188.15,-52.131 -94.073,-16.404 0,44.766 77.163,-5.009 172.704,-43.294 282.232,-72.836 c 2.602,-135.553 -19.206,-234.488 -56.937,-309.538 z m -135.98,-382.937 c 6.812,0 12.331,-5.519 12.331,-12.331 0,-6.807 -5.519,-12.327 -12.331,-12.327 -6.807,0 -12.327,5.52 -12.327,12.327 0,6.812 5.52,12.331 12.327,12.331 m 283.121,-29.406 c 6.806,0 12.327,-5.518 12.327,-12.326 0,-6.811 -5.521,-12.33 -12.327,-12.33 -6.812,0 -12.331,5.519 -12.331,12.33 0,6.808 5.519,12.326 12.331,12.326 m -55.9,107.547 c 6.811,0 12.331,-5.519 12.331,-12.332 0,-6.806 -5.52,-12.326 -12.331,-12.326 -6.807,0 -12.327,5.52 -12.327,12.326 0,6.813 5.52,12.332 12.327,12.332 m -73.025,111.542 c 6.806,0 12.327,-5.52 12.327,-12.331 0,-6.811 -5.521,-12.332 -12.327,-12.332 -6.812,0 -12.331,5.521 -12.331,12.332 0,6.811 5.519,12.331 12.331,12.331 m -91.541,-83.473 c 6.807,0 12.327,-5.519 12.327,-12.325 0,-6.807 -5.52,-12.327 -12.327,-12.327 -6.812,0 -12.331,5.52 -12.331,12.327 0,6.806 5.519,12.325 12.331,12.325 M 7.971,-515.146 v -71.019 c 73.819,38.328 141.784,85.424 191.623,159.711 L 0,-83.455 -201.576,-431.103 c 46.694,-68.694 112.597,-120.392 195.889,-156.706 v 72.663 h -11.472 -13.564 -0.094 v 52.35 h -35.68 -13.657 v 13.658 47.041 h -32.722 c -2.945,-9.975 -12.173,-17.258 -23.104,-17.258 -13.306,0 -24.087,10.786 -24.087,24.087 0,13.305 10.781,24.086 24.087,24.086 10.931,0 20.159,-7.279 23.104,-17.258 h 32.722 v 76.283 c -9.979,2.945 -17.259,12.173 -17.259,23.105 0,13.305 10.783,24.086 24.088,24.086 13.305,0 24.087,-10.781 24.087,-24.086 0,-10.932 -7.28,-20.16 -17.259,-23.105 v -136.981 h 35.68 13.658 v -13.658 -38.692 H 19.73 v 26.554 13.659 35.654 H -17.443 -31.1 v 13.656 81.373 13.658 h 13.657 28.826 v 88.245 c -9.975,2.944 -17.254,12.171 -17.254,23.104 0,13.301 10.781,24.087 24.087,24.087 13.301,0 24.087,-10.786 24.087,-24.087 0,-10.933 -7.284,-20.16 -17.263,-23.104 v -88.245 -13.658 -0.574 H 11.383 v 0.574 h -28.826 v -81.373 H 19.73 v 22.195 13.657 h 13.659 51.023 v 35.883 c -9.979,2.943 -17.258,12.171 -17.258,23.102 0,13.307 10.782,24.093 24.087,24.093 13.306,0 24.087,-10.786 24.087,-24.093 0,-10.931 -7.279,-20.159 -17.258,-23.102 v -35.883 -13.562 -0.095 H 33.389 v -22.195 -13.656 -35.654 h 34.52 v 29.774 13.661 h 13.657 42.471 c 2.94,9.976 12.171,17.258 23.104,17.258 13.3,0 24.087,-10.785 24.087,-24.087 0,-13.305 -10.787,-24.091 -24.087,-24.091 -10.933,0 -20.16,7.282 -23.104,17.259 H 81.566 v -29.774 -13.659 H 67.909 33.389 v -26.554 -13.658 H 19.73 Z m -297.525,475.604 c 97.622,21.481 187.099,58.35 270.979,112.884 L -0.068,85.373 18.478,73.407 c 82.008,-52.9 178.824,-88.03 272.63,-113.332 l 24.714,-6.661 0.49,-25.594 c 2.089,-108.927 -10.323,-223.913 -59.179,-322.749 -37.375,-75.626 -91.468,-132.766 -161.27,-179.304 -25.778,-17.186 -52.808,-32.385 -80.42,-46.415 l -14.133,-7.184 -14.602,6.187 c -69.398,29.398 -132.152,70.687 -182.296,127.369 -103.598,117.107 -129.101,271.767 -120.676,423.337 l 1.438,25.833 z"
       transform="matrix(0.62808249,0,0,-0.62808249,199.57785,53.621285)" />
  </g>
</svg>
